PathFileType  4	(X/Y/Z) C:\Users\antoi\Documents\MyRepositories\mobilecap\ResultsAnalysis
DataRate	CameraRate	NumFrames	NumMarkers	Units	OrigDataRate	OrigDataStartFrame	OrigNumFrames
100.0	100.0	5	51	mm	100.0	66	261
Frame#	Time	r_knee			r_shank_antsup			r_ankle			r_calc			r_5meta			r_toe			L_knee			L_shank_antsup			L_ankle			L_calc			L_5meta			L_toe			r_sh2			r_sh3			r_sh4			L_sh2			L_sh3			r_thigh1			r_thigh2			r_thigh3			r_thigh4			r_thigh5			L_thigh1			L_thigh2			L_thigh3			L_thigh4			r.ASIS			r.PSIS			L.ASIS			L.PSIS			C7			R_Shoulder			L_Shoulder			R_Sternum			L_Sternum			R_humerus			R_elbow_med			R_elbow_lat			R_forearm			R_wrist_radius			R_wrist_ulna			L_humerus			L_elbow_med			L_elbow_lat			L_forearm			L_wrist_radius			L_wrist_ulna			R_HJC			L_HJC			R_HJC_reg			L_HJC_reg			
		X1	Y1	Z1	X2	Y2	Z2	X3	Y3	Z3	X4	Y4	Z4	X5	Y5	Z5	X6	Y6	Z6	X7	Y7	Z7	X8	Y8	Z8	X9	Y9	Z9	X10	Y10	Z10	X11	Y11	Z11	X12	Y12	Z12	X13	Y13	Z13	X14	Y14	Z14	X15	Y15	Z15	X16	Y16	Z16	X17	Y17	Z17	X18	Y18	Z18	X19	Y19	Z19	X20	Y20	Z20	X21	Y21	Z21	X22	Y22	Z22	X23	Y23	Z23	X24	Y24	Z24	X25	Y25	Z25	X26	Y26	Z26	X27	Y27	Z27	X28	Y28	Z28	X29	Y29	Z29	X30	Y30	Z30	X31	Y31	Z31	X32	Y32	Z32	X33	Y33	Z33	X34	Y34	Z34	X35	Y35	Z35	X36	Y36	Z36	X37	Y37	Z37	X38	Y38	Z38	X39	Y39	Z39	X40	Y40	Z40	X41	Y41	Z41	X42	Y42	Z42	X43	Y43	Z43	X44	Y44	Z44	X45	Y45	Z45	X46	Y46	Z46	X47	Y47	Z47	X48	Y48	Z48	X49	Y49	Z49	X50	Y50	Z50	X51	Y51	Z51	

66	0.65000000	-1137.19141	849.61566	-429.38860	-1113.12873	750.50491	-442.46241	-1231.07370	428.50330	-470.58312	-1314.22924	381.69864	-516.67403	-1118.41228	356.70036	-427.22930	-1060.85267	385.64705	-490.83505	-1129.32177	838.28840	-730.64379	-1137.95245	747.28984	-749.85844	-1252.44221	430.29264	-685.20000	-1332.00447	382.45542	-626.62547	-1142.84233	359.93791	-719.28283	-1082.81346	388.93802	-658.04852	-1144.13667	643.74919	-419.64992	-1171.88850	775.91525	-397.85883	-1220.27269	670.38568	-394.30886	-1224.62211	773.92280	-745.30373	-1246.54310	653.95195	-734.92560	-1068.47119	1171.46950	-402.44128	-1062.49871	1062.24594	-415.85375	-1113.95858	1031.88652	-385.42410	-1180.46809	1159.98511	-391.21217	-1166.28236	1046.45582	-398.81216	-1063.27885	1128.49771	-746.13110	-1051.47700	989.24711	-729.90090	-1169.76974	1116.25089	-772.64646	-1163.46125	979.76028	-756.64970	-1057.68917	1378.71525	-449.32158	-1237.39163	1415.82988	-515.96211	-1058.51490	1365.13449	-696.21738	-1239.62070	1412.76308	-628.76616	-972.00119	1917.18644	-585.04688	-933.21313	1840.11923	-416.58356	-958.68819	1844.79367	-755.23801	-898.61031	1783.70486	-557.43211	-904.22551	1782.51988	-616.38798	-1041.45027	1723.87283	-342.91108	-1244.44586	1653.95827	-393.88514	-1226.66433	1658.65826	-312.58867	-1327.44258	1522.92193	-272.51597	-1372.98947	1436.24538	-267.21592	-1397.23797	1475.82917	-258.55330	-1073.68506	1789.51482	-826.05583	-1279.58836	1694.57011	-733.73214	-1281.42605	1703.90408	-813.27070	-1323.95855	1648.60604	-844.23057	-1464.33772	1533.63410	-851.57789	-1485.66284	1568.94239	-848.25079	-1154.66879	1274.89967	-462.27827	-1159.84680	1271.57320	-669.14769	-1127.59249	1302.86855	-480.57069	-1130.81491	1298.43398	-643.67655	
67	0.66000000	-1133.52909	849.01466	-430.09554	-1109.98208	749.74876	-443.10388	-1231.00572	428.65130	-470.62823	-1314.32964	381.73516	-516.63543	-1118.43788	356.73085	-427.25535	-1060.91028	385.71421	-490.84930	-1127.16626	837.55744	-730.47398	-1136.07066	746.59348	-749.68602	-1252.30660	430.32415	-685.17005	-1331.88802	382.54012	-626.76815	-1142.82156	359.95232	-719.23569	-1082.71125	388.73470	-657.93981	-1141.99570	643.13700	-420.17831	-1168.60391	775.59864	-398.52987	-1217.86823	670.78523	-394.73595	-1222.56498	773.85386	-745.61735	-1245.08595	653.96019	-735.32462	-1067.93250	1171.18094	-403.76310	-1060.90538	1062.03429	-417.29795	-1111.82946	1031.22192	-386.26331	-1179.57072	1158.66996	-391.35232	-1164.43207	1045.21109	-399.24663	-1062.66783	1128.04019	-746.12727	-1049.96309	988.98521	-729.75872	-1168.87236	1115.08012	-773.24051	-1161.72389	978.72354	-757.08257	-1058.55238	1377.49516	-450.18076	-1237.47314	1416.24385	-517.13003	-1058.65119	1363.58999	-696.80234	-1239.68934	1413.25445	-630.16162	-964.91213	1913.81772	-586.07115	-926.22689	1835.58215	-417.52263	-951.99455	1840.33198	-756.37344	-893.04778	1779.38973	-558.73593	-898.65067	1778.18213	-617.30792	-1035.08269	1719.21918	-344.44330	-1238.01761	1649.90821	-395.27184	-1220.22474	1654.09134	-314.10027	-1321.50560	1518.61108	-274.70454	-1367.17948	1432.24780	-269.19037	-1391.42021	1471.72695	-261.05005	-1067.32758	1784.40877	-827.75850	-1273.05177	1690.14531	-734.08786	-1275.26915	1699.23990	-813.16130	-1318.08047	1644.33282	-844.16001	-1458.54673	1529.52237	-851.02654	-1479.89810	1564.75403	-846.99030	-1156.48232	1274.62229	-463.17826	-1161.08743	1271.12944	-670.05820	-1128.76905	1302.16830	-481.44395	-1131.96222	1297.85749	-644.38381	
68	0.67000000	-1129.23490	848.27634	-430.80794	-1106.37558	748.81257	-443.77620	-1230.97466	428.81034	-470.73008	-1314.25021	381.86704	-516.71796	-1118.47518	356.73466	-427.28900	-1061.02988	385.76569	-490.81750	-1125.09097	836.76049	-730.18858	-1134.23608	746.07520	-749.92459	-1252.30719	430.48551	-685.53099	-1331.87034	382.54768	-626.84422	-1142.80975	359.97400	-719.22290	-1082.62420	388.54837	-657.75617	-1139.51088	642.50026	-420.78867	-1164.38669	775.60429	-399.43561	-1215.10462	671.15762	-395.29625	-1220.56707	773.67869	-745.83318	-1243.65639	653.96615	-735.74915	-1067.39764	1170.87565	-405.22508	-1059.09495	1062.13250	-418.46205	-1109.30174	1030.42944	-387.19273	-1178.47239	1157.11753	-391.50335	-1162.16176	1043.86812	-399.55077	-1062.10700	1127.59271	-746.11759	-1048.43423	988.71567	-729.47939	-1168.03732	1113.77422	-773.60666	-1160.04939	977.63517	-757.43393	-1059.49346	1376.12321	-450.90337	-1237.52983	1416.64130	-518.22229	-1058.79755	1361.99941	-697.19029	-1239.72762	1413.66310	-631.55188	-957.86023	1910.03653	-587.09302	-919.30171	1830.49722	-418.71594	-945.44978	1835.59395	-757.64447	-887.37252	1774.83649	-559.98056	-893.05253	1773.59779	-618.20761	-1028.32313	1713.65485	-346.24463	-1231.25545	1644.79612	-396.40085	-1213.23470	1648.21391	-315.49212	-1314.47024	1512.58526	-276.80446	-1360.03102	1426.24471	-271.04390	-1384.36870	1465.71144	-263.26641	-1060.85577	1778.53117	-829.62366	-1266.20181	1684.20940	-734.64235	-1268.76977	1693.07506	-813.44810	-1311.56795	1638.40380	-844.52186	-1451.71448	1523.02436	-850.73204	-1473.13476	1558.18625	-846.33334	-1158.39955	1274.26549	-464.01115	-1162.33216	1270.64946	-670.90270	-1130.04844	1301.52528	-482.13917	-1133.20445	1297.24849	-644.86985	
69	0.68000000	-1124.30655	847.36080	-431.63343	-1102.37709	747.71389	-444.40288	-1230.91832	428.94421	-470.84210	-1314.12259	382.03683	-516.82224	-1118.54277	356.75088	-427.38164	-1061.10391	385.80641	-490.77815	-1123.02839	836.10173	-730.38556	-1132.42415	745.61047	-750.23163	-1252.43800	430.72149	-686.18663	-1331.88050	382.56041	-626.87257	-1142.81903	360.00024	-719.21318	-1082.60930	388.40312	-657.57714	-1136.97512	641.82272	-421.58132	-1159.75827	775.55006	-400.42719	-1211.89002	671.44086	-396.00184	-1218.70417	773.39266	-745.99249	-1242.28512	653.85847	-736.09600	-1066.92309	1170.55300	-406.77517	-1057.25890	1062.27429	-419.70551	-1106.48639	1029.58051	-388.05470	-1177.37676	1155.29476	-391.86326	-1159.62475	1042.38858	-399.73243	-1061.59328	1127.12630	-745.99338	-1046.98245	988.35211	-729.22796	-1167.18508	1112.45227	-774.02100	-1158.43804	976.48044	-757.72226	-1060.45631	1374.56287	-451.53730	-1237.65552	1417.05780	-519.05075	-1058.89735	1360.33342	-697.49535	-1239.60524	1413.81776	-632.71984	-950.86149	1905.90948	-588.21569	-912.44384	1825.07966	-419.84627	-939.05885	1830.46671	-758.96475	-881.68704	1769.97053	-561.13831	-887.46699	1768.66319	-619.30610	-1021.24290	1707.31534	-348.17646	-1224.10891	1638.41426	-397.23601	-1205.66466	1640.97998	-316.55970	-1306.29346	1504.86229	-278.60022	-1351.52060	1418.27612	-272.88305	-1375.98710	1457.67913	-265.14948	-1054.35063	1771.91019	-831.33829	-1259.06361	1676.70986	-735.07002	-1261.95481	1685.40328	-813.98525	-1304.46964	1630.69401	-845.07871	-1443.71344	1514.08298	-850.93890	-1465.32458	1548.99969	-846.13737	-1160.28732	1273.77867	-464.70709	-1163.56185	1270.07505	-671.60907	-1131.60271	1301.09587	-482.74126	-1134.39274	1296.46486	-645.25829	
70	0.69000000	-1118.85116	846.29243	-432.56408	-1098.10535	746.52091	-444.86346	-1230.79181	429.08960	-470.93690	-1314.17379	382.15006	-516.85205	-1118.61532	356.81367	-427.50804	-1061.06828	385.86918	-490.79154	-1121.04719	835.44756	-730.83999	-1130.64494	744.91032	-750.26793	-1252.55541	430.82587	-686.60264	-1331.95916	382.65098	-626.85161	-1142.85351	360.02573	-719.20166	-1082.68471	388.31207	-657.48922	-1134.39034	641.10823	-422.25569	-1155.30996	775.09568	-401.12556	-1208.51566	671.62566	-396.69355	-1216.88700	773.01131	-746.16925	-1241.02525	653.65848	-736.26765	-1066.49305	1170.15103	-408.31530	-1055.29146	1062.08423	-421.49906	-1103.49119	1028.67287	-388.97112	-1176.47525	1153.21155	-392.40298	-1156.90966	1040.66471	-400.09962	-1061.07553	1126.52129	-745.83979	-1045.67736	987.85714	-729.05508	-1166.24430	1111.23826	-774.83764	-1156.85999	975.28221	-758.03473	-1061.41543	1372.83617	-452.22717	-1237.99981	1417.10593	-520.02401	-1058.99940	1358.56684	-697.93779	-1239.31241	1413.68779	-633.60286	-943.95561	1901.50192	-589.45476	-905.81797	1819.36836	-421.02778	-932.77038	1824.85843	-760.22634	-876.11785	1764.76465	-562.40676	-881.96769	1763.42474	-620.58041	-1013.91588	1700.36253	-350.00400	-1216.35724	1630.56389	-397.71398	-1197.47560	1632.37220	-317.23664	-1296.92504	1495.38071	-279.97338	-1341.50708	1408.34089	-274.76501	-1366.20553	1447.57840	-266.58456	-1047.86979	1764.56538	-832.81853	-1251.59647	1667.63439	-735.63263	-1254.76502	1676.13244	-814.65472	-1296.73534	1621.18626	-845.84390	-1434.33279	1502.73161	-851.97376	-1456.40086	1537.14384	-846.43599	-1162.04652	1273.00852	-465.48053	-1164.67878	1269.31096	-672.39159	-1133.32363	1300.31057	-483.70414	-1135.19680	1295.42621	-646.06769	
